<?xml version="1.0" standalone="no"?>
<!DOCTYPE svg PUBLIC "-//W3C//DTD SVG 20010904//EN"
 "http://www.w3.org/TR/2001/REC-SVG-20010904/DTD/svg10.dtd">
<svg version="1.0" xmlns="http://www.w3.org/2000/svg"
 width="1024.000000pt" height="1536.000000pt" viewBox="0 0 1024.000000 1536.000000"
 preserveAspectRatio="xMidYMid meet">

<g transform="translate(0.000000,1536.000000) scale(0.100000,-0.100000)"
fill="#000000" stroke="none">
<path d="M4060 11920 c-74 -5 -191 -14 -260 -20 -816 -70 -1310 -162 -1770
-329 -250 -90 -425 -193 -555 -325 -137 -139 -165 -224 -165 -506 0 -157 22
-669 35 -825 3 -33 16 -193 30 -355 28 -328 34 -383 76 -686 56 -408 101 -650
190 -1021 44 -185 161 -588 204 -703 8 -19 37 -100 65 -180 108 -302 271 -647
430 -910 l93 -155 9 -155 c11 -203 20 -254 60 -336 130 -268 635 -518 1268
-628 421 -73 848 -91 1310 -56 492 38 945 148 1272 310 266 131 438 300 478
471 5 24 13 120 16 212 l7 169 74 115 c87 135 199 337 285 516 55 113 65 127
88 127 92 0 381 102 625 219 465 224 821 512 1109 896 253 338 412 706 487
1130 27 153 37 492 20 628 -69 519 -348 822 -859 929 -179 38 -575 28 -726
-18 -17 -6 -18 3 -11 208 8 254 -3 328 -64 454 -55 111 -136 195 -276 289
-224 149 -486 250 -921 355 -332 80 -667 127 -1224 171 -172 14 -1222 20
-1400 9z m1405 -49 c884 -68 1508 -205 1943 -428 196 -100 312 -197 378 -316
26 -47 29 -61 29 -150 0 -80 2 -94 13 -80 6 9 12 44 13 77 0 75 14 50 24 -45
9 -81 -6 -165 -44 -245 -38 -81 -198 -255 -284 -307 -164 -101 -528 -260 -725
-318 -27 -8 -38 -15 -30 -20 8 -5 3 -10 -15 -14 -15 -4 -27 -11 -27 -15 0 -4
-14 -10 -32 -14 -17 -3 -29 -9 -26 -12 7 -7 84 15 270 77 169 56 296 107 376
151 32 17 91 50 133 73 133 73 320 229 389 325 l32 45 -6 -90 c-3 -49 -8 -144
-11 -210 -22 -453 -96 -1281 -145 -1625 -132 -931 -306 -1584 -574 -2157 -147
-315 -318 -586 -456 -724 -140 -139 -348 -253 -640 -349 -629 -209 -1346 -269
-2075 -174 -594 77 -1126 273 -1368 504 -151 143 -350 491 -534 929 -308 737
-510 1601 -613 2629 -35 346 -80 1022 -80 1205 l0 79 38 -49 c72 -90 206 -200
340 -278 111 -65 234 -126 245 -122 7 2 -26 23 -73 46 -136 67 -210 109 -296
172 -85 61 -107 82 -110 105 -3 20 10 17 31 -6 10 -11 23 -20 29 -19 6 0 1 7
-11 16 -35 24 -129 144 -162 205 -71 137 -44 279 84 437 158 196 506 361 1045
496 356 90 926 169 1405 195 110 6 225 12 255 14 120 8 1134 -3 1265 -13z
m3110 -1446 c159 -24 281 -61 403 -121 337 -167 512 -507 512 -996 0 -304 -74
-652 -206 -967 -162 -385 -460 -776 -804 -1052 -99 -79 -314 -219 -442 -287
-236 -126 -530 -245 -705 -285 -20 -4 -21 -3 -12 14 5 11 43 110 83 222 69
191 110 331 136 459 6 31 16 61 23 66 7 5 54 23 106 41 52 18 151 61 221 95
386 193 642 417 876 768 89 133 139 232 194 386 66 187 84 289 84 497 1 198
-4 224 -62 345 -20 41 -38 80 -40 85 -14 31 78 -71 119 -133 63 -95 87 -175
103 -337 2 -22 2 -1 0 47 -3 77 -17 135 -59 253 -6 19 -6 19 8 2 20 -25 56
-138 72 -233 l15 -79 -6 70 c-6 86 -53 229 -99 306 -51 84 -173 194 -259 235
-173 82 -410 87 -618 11 -86 -31 -143 -65 -239 -143 -56 -45 -79 -59 -79 -46
1 9 5 62 10 117 5 55 12 190 15 300 3 110 8 228 11 262 l5 62 57 12 c178 38
417 48 577 24z m56 -589 c103 -22 163 -52 217 -110 95 -100 131 -208 139 -411
10 -259 -55 -514 -198 -770 -247 -443 -623 -773 -1092 -956 -93 -36 -127 -45
-127 -35 0 2 15 69 34 148 82 342 171 857 216 1243 34 298 50 455 50 499 0 36
8 51 54 107 118 142 305 251 489 284 95 17 139 17 218 1z m-5950 -4129 c115
-83 378 -214 519 -261 714 -233 1660 -281 2421 -121 499 105 895 278 1117 489
l44 41 -7 -150 c-8 -184 -16 -222 -59 -289 -102 -160 -423 -332 -794 -425
-1027 -258 -2245 -190 -2997 169 -186 89 -323 199 -374 299 -22 43 -33 117
-46 308 l-6 93 44 -43 c24 -23 86 -72 138 -110z m1602 -434 c-7 -2 -19 -2 -25
0 -7 3 -2 5 12 5 14 0 19 -2 13 -5z m255 -10 c-10 -2 -26 -2 -35 0 -10 3 -2 5
17 5 19 0 27 -2 18 -5z m-90 -10 c-10 -2 -26 -2 -35 0 -10 3 -2 5 17 5 19 0
27 -2 18 -5z m-1608 -88 c114 -71 514 -214 670 -239 46 -8 14 4 -97 35 -46 12
-81 24 -79 26 2 2 55 -10 117 -26 237 -62 607 -114 944 -132 260 -14 646 -1
894 31 85 11 156 18 158 16 5 -5 -37 -12 -161 -27 -55 -7 -94 -15 -88 -17 56
-18 715 104 902 168 134 45 163 51 75 14 -79 -32 -191 -66 -342 -100 -77 -18
-118 -32 -110 -37 7 -5 0 -7 -18 -4 -16 3 -52 1 -80 -5 -27 -6 -113 -22 -190
-34 -128 -22 -124 -24 20 -9 35 3 27 0 -25 -10 -41 -8 -163 -25 -270 -37 -277
-32 -778 -32 -1048 1 -307 36 -529 80 -749 147 -116 35 -166 55 -348 136 -82
37 -255 135 -255 145 0 5 33 -13 80 -42z m465 -165 c13 -5 14 -9 5 -9 -8 0
-24 4 -35 9 -13 5 -14 9 -5 9 8 0 24 -4 35 -9z m2322 -96 c-3 -3 -12 -4 -19
-1 -8 3 -5 6 6 6 11 1 17 -2 13 -5z m-44 -11 c-7 -2 -21 -2 -30 0 -10 3 -4 5
12 5 17 0 24 -2 18 -5z m-70 -10 c-7 -2 -19 -2 -25 0 -7 3 -2 5 12 5 14 0 19
-2 13 -5z m134 -29 c-3 -3 -12 -4 -19 -1 -8 3 -5 6 6 6 11 1 17 -2 13 -5z
m-67 -14 c-14 -4 -36 -8 -50 -8 -22 0 -22 1 5 8 17 4 39 8 50 8 16 0 15 -2 -5
-8z"/>
<path d="M2358 11523 c7 -3 16 -2 19 1 4 3 -2 6 -13 5 -11 0 -14 -3 -6 -6z"/>
<path d="M6935 11510 c11 -5 27 -9 35 -9 9 0 8 4 -5 9 -11 5 -27 9 -35 9 -9 0
-8 -4 5 -9z"/>
<path d="M2195 11475 c-39 -17 -21 -18 25 0 19 7 28 14 20 14 -8 0 -28 -6 -45
-14z"/>
<path d="M6970 11470 c8 -5 20 -10 25 -10 6 0 3 5 -5 10 -8 5 -19 10 -25 10
-5 0 -3 -5 5 -10z"/>
<path d="M2178 11425 c-64 -24 -170 -69 -235 -101 -65 -32 -124 -58 -130 -57
-7 0 -11 -3 -8 -7 6 -9 -75 -64 -83 -56 -3 3 1 6 9 6 11 0 11 2 1 9 -10 6 -6
13 15 26 24 16 26 16 14 2 -7 -9 -9 -17 -3 -17 13 0 33 25 26 32 -9 10 105 70
117 62 7 -4 9 -3 6 3 -7 11 76 54 188 99 36 15 64 28 62 31 -8 7 -161 -58
-274 -117 -178 -93 -305 -198 -344 -285 -24 -52 -24 -141 -1 -203 74 -193 364
-384 816 -538 477 -162 1246 -302 1838 -335 260 -15 933 -6 1163 15 724 66
1226 171 1715 357 302 115 593 327 648 472 26 70 28 145 5 213 -26 76 -149
192 -288 271 -111 63 -342 169 -351 161 -2 -3 35 -22 83 -42 128 -53 288 -141
285 -155 -1 -7 2 -10 8 -6 16 10 64 -25 52 -37 -12 -12 -35 -1 -27 13 4 5 1
10 -4 10 -6 1 -15 3 -21 4 -5 1 -15 3 -21 4 -5 0 -7 6 -3 13 4 7 3 8 -5 4 -6
-4 -23 2 -39 12 -45 32 -250 132 -271 132 -3 0 50 -28 119 -63 214 -106 344
-207 406 -312 37 -64 40 -157 7 -221 -29 -54 -101 -133 -176 -192 -64 -50
-215 -144 -258 -160 -13 -5 -53 -23 -89 -40 -36 -17 -101 -45 -145 -62 -44
-17 -89 -35 -100 -40 -37 -17 -279 -91 -395 -120 -240 -61 -608 -128 -850
-155 -377 -41 -495 -47 -925 -52 -440 -5 -523 -2 -820 32 -522 60 -680 88
-1115 197 -304 77 -480 135 -644 213 -76 37 -78 38 -55 51 13 7 34 13 46 14
16 0 20 5 16 21 -3 11 -12 23 -19 26 -7 2 -10 11 -7 19 3 8 0 14 -7 14 -6 0
-9 4 -6 9 3 5 -1 14 -9 21 -11 9 -19 8 -39 -7 -13 -10 -27 -25 -30 -33 -3 -8
-8 -20 -11 -26 -3 -7 2 -19 11 -28 31 -32 5 -28 -68 9 -164 85 -299 199 -348
294 -32 65 -37 137 -12 194 59 134 264 271 587 393 77 29 133 53 125 53 -8 0
-68 -20 -132 -44z m5373 -212 c12 -14 12 -16 0 -8 -11 6 -13 4 -7 -10 7 -18 6
-18 -13 -1 -11 10 -18 23 -15 27 8 14 20 11 35 -8z m70 -60 c13 -16 12 -17 -3
-4 -17 13 -22 21 -14 21 2 0 10 -8 17 -17z m-4764 -959 c-3 -3 -12 -4 -19 -1
-8 3 -5 6 6 6 11 1 17 -2 13 -5z m46 -11 c-7 -2 -19 -2 -25 0 -7 3 -2 5 12 5
14 0 19 -2 13 -5z m324 -69 c-3 -3 -12 -4 -19 -1 -8 3 -5 6 6 6 11 1 17 -2 13
-5z m530 -80 c-3 -3 -12 -4 -19 -1 -8 3 -5 6 6 6 11 1 17 -2 13 -5z m111 -11
c-10 -2 -26 -2 -35 0 -10 3 -2 5 17 5 19 0 27 -2 18 -5z m100 -10 c-10 -2 -28
-2 -40 0 -13 2 -5 4 17 4 22 1 32 -1 23 -4z m85 -10 c-7 -2 -21 -2 -30 0 -10
3 -4 5 12 5 17 0 24 -2 18 -5z m645 -20 c-10 -2 -28 -2 -40 0 -13 2 -5 4 17 4
22 1 32 -1 23 -4z"/>
<path d="M7050 11442 c8 -5 26 -13 40 -16 17 -5 20 -4 10 2 -8 5 -26 13 -40
16 -17 5 -20 4 -10 -2z"/>
<path d="M4577 11253 c-15 -14 -7 -43 12 -43 22 0 45 25 36 40 -7 11 -38 14
-48 3z"/>
<path d="M4928 11243 c6 -2 18 -2 25 0 6 3 1 5 -13 5 -14 0 -19 -2 -12 -5z"/>
<path d="M5202 11215 c-17 -37 -15 -53 10 -66 17 -9 28 -8 55 6 27 15 32 23
28 43 -9 49 -74 60 -93 17z m35 -51 c-3 -3 -12 -4 -19 -1 -8 3 -5 6 6 6 11 1
17 -2 13 -5z"/>
<path d="M4140 11218 c-24 -10 -24 -10 -5 -18 32 -14 44 -11 55 10 9 17 8 20
-7 19 -10 0 -29 -5 -43 -11z"/>
<path d="M5587 11203 c-10 -10 -8 -25 2 -19 5 4 11 1 13 -6 2 -6 10 -8 17 -4
9 6 9 11 0 22 -13 15 -22 18 -32 7z"/>
<path d="M4890 11179 c0 -11 47 -12 54 -1 3 5 -8 9 -24 10 -17 0 -30 -4 -30
-9z"/>
<path d="M3583 11169 c-18 -18 22 -51 52 -43 30 7 37 17 29 38 -7 19 -64 22
-81 5z m67 -19 c0 -5 -4 -10 -10 -10 -5 0 -10 5 -10 10 0 6 5 10 10 10 6 0 10
-4 10 -10z"/>
<path d="M5730 11170 c0 -5 9 -10 19 -10 11 0 23 5 26 10 4 6 -5 10 -19 10
-14 0 -26 -4 -26 -10z"/>
<path d="M3816 11163 c-3 -3 -6 -15 -6 -25 0 -24 55 -26 64 -2 4 9 5 18 4 19
-10 7 -56 14 -62 8z"/>
<path d="M4028 11163 c6 -2 18 -2 25 0 6 3 1 5 -13 5 -14 0 -19 -2 -12 -5z"/>
<path d="M5586 11135 c-24 -25 -20 -31 20 -27 26 3 34 9 32 21 -4 22 -32 25
-52 6z"/>
<path d="M5457 11133 c-14 -13 -6 -23 18 -23 16 0 25 6 25 15 0 15 -31 21 -43
8z"/>
<path d="M3475 11120 c-3 -5 -1 -10 4 -10 6 0 11 5 11 10 0 6 -2 10 -4 10 -3
0 -8 -4 -11 -10z"/>
<path d="M5055 11120 c3 -5 10 -10 16 -10 5 0 9 5 9 10 0 6 -7 10 -16 10 -8 0
-12 -4 -9 -10z"/>
<path d="M3950 11110 c0 -5 7 -10 16 -10 8 0 12 5 9 10 -3 6 -10 10 -16 10 -5
0 -9 -4 -9 -10z"/>
<path d="M4088 11113 c7 -3 16 -2 19 1 4 3 -2 6 -13 5 -11 0 -14 -3 -6 -6z"/>
<path d="M4440 11110 c0 -5 9 -10 19 -10 11 0 23 5 26 10 4 6 -5 10 -19 10
-14 0 -26 -4 -26 -10z"/>
<path d="M3318 11103 c7 -3 16 -2 19 1 4 3 -2 6 -13 5 -11 0 -14 -3 -6 -6z"/>
<path d="M4390 11100 c0 -5 9 -10 21 -10 11 0 17 5 14 10 -3 6 -13 10 -21 10
-8 0 -14 -4 -14 -10z"/>
<path d="M5840 11100 c0 -13 18 -22 24 -11 3 5 -1 11 -9 15 -8 3 -15 1 -15 -4z"/>
<path d="M3368 11083 c7 -3 16 -2 19 1 4 3 -2 6 -13 5 -11 0 -14 -3 -6 -6z"/>
<path d="M4090 11080 c0 -5 5 -10 11 -10 5 0 7 5 4 10 -3 6 -8 10 -11 10 -2 0
-4 -4 -4 -10z"/>
<path d="M5450 11086 c0 -2 7 -6 15 -10 8 -3 15 -1 15 4 0 6 -7 10 -15 10 -8
0 -15 -2 -15 -4z"/>
<path d="M3097 11070 c-43 -13 -57 -29 -57 -65 0 -33 23 -52 65 -56 40 -3 52
1 83 29 37 34 34 65 -9 87 -31 17 -41 17 -82 5z"/>
<path d="M3690 11069 c0 -5 7 -9 16 -9 8 0 12 -4 9 -10 -3 -5 -1 -10 4 -10 19
0 12 28 -9 33 -11 3 -20 1 -20 -4z"/>
<path d="M5360 11070 c0 -5 4 -10 9 -10 6 0 13 5 16 10 3 6 -1 10 -9 10 -9 0
-16 -4 -16 -10z"/>
<path d="M4218 11063 c7 -3 16 -2 19 1 4 3 -2 6 -13 5 -11 0 -14 -3 -6 -6z"/>
<path d="M5145 11060 c3 -5 13 -10 21 -10 8 0 14 5 14 10 0 6 -9 10 -21 10
-11 0 -17 -4 -14 -10z"/>
<path d="M5235 11060 c3 -5 13 -10 21 -10 8 0 17 -7 20 -15 4 -8 10 -12 15 -9
15 9 -15 44 -39 44 -13 0 -20 -4 -17 -10z"/>
<path d="M6130 11060 c-18 -12 -2 -12 25 0 13 6 15 9 5 9 -8 0 -22 -4 -30 -9z"/>
<path d="M5550 11051 c0 -18 25 -29 37 -16 6 7 9 16 6 19 -10 9 -43 7 -43 -3z"/>
<path d="M6152 11039 c-13 -5 -29 -6 -34 -2 -7 3 -8 1 -4 -5 10 -17 61 -15 76
3 15 18 0 20 -38 4z"/>
<path d="M5165 11030 c3 -5 13 -10 21 -10 8 0 14 5 14 10 0 6 -9 10 -21 10
-11 0 -17 -4 -14 -10z"/>
<path d="M5810 11030 c0 -5 5 -10 10 -10 6 0 10 5 10 10 0 6 -4 10 -10 10 -5
0 -10 -4 -10 -10z"/>
<path d="M6296 11019 c-29 -23 -34 -54 -10 -63 34 -13 75 -6 99 19 33 32 31
41 -6 54 -44 15 -52 14 -83 -10z"/>
<path d="M3883 11023 c-26 -10 -12 -19 23 -15 25 3 32 7 23 13 -15 10 -27 10
-46 2z"/>
<path d="M3586 11004 c-3 -7 2 -11 12 -10 9 2 17 7 19 13 5 14 -25 12 -31 -3z"/>
<path d="M3765 11000 c-3 -5 -2 -10 4 -10 5 0 13 5 16 10 3 6 2 10 -4 10 -5 0
-13 -4 -16 -10z"/>
<path d="M3930 10999 c-36 -5 -83 -15 -105 -24 -31 -12 -33 -14 -10 -10 17 3
63 9 102 13 40 4 78 13 85 20 6 6 8 11 3 11 -6 -1 -39 -5 -75 -10z"/>
<path d="M4053 11003 c-60 -8 -34 -23 35 -21 37 2 103 -1 147 -4 82 -7 66 0
-51 21 -60 11 -71 11 -131 4z"/>
<path d="M5165 11000 c-2 -4 9 -10 27 -14 31 -6 47 -2 35 10 -10 10 -56 13
-62 4z"/>
<path d="M5378 10993 c12 -2 32 -2 45 0 12 2 2 4 -23 4 -25 0 -35 -2 -22 -4z"/>
<path d="M4500 10980 c8 -5 29 -10 45 -10 23 0 27 3 15 10 -8 5 -28 10 -45 10
-23 0 -27 -3 -15 -10z"/>
<path d="M4970 10981 c0 -5 9 -7 20 -4 11 3 20 7 20 9 0 2 -9 4 -20 4 -11 0
-20 -4 -20 -9z"/>
<path d="M5240 10970 c0 -5 6 -10 14 -10 8 0 18 5 21 10 3 6 -3 10 -14 10 -12
0 -21 -4 -21 -10z"/>
<path d="M5920 10970 c0 -5 10 -10 23 -10 18 0 19 2 7 10 -19 13 -30 13 -30 0z"/>
<path d="M4808 10963 c7 -3 16 -2 19 1 4 3 -2 6 -13 5 -11 0 -14 -3 -6 -6z"/>
<path d="M6533 10954 c-18 -9 -33 -24 -33 -33 0 -9 -6 -23 -12 -30 -8 -8 -8
-11 -2 -8 7 4 14 -2 17 -12 5 -21 60 -41 114 -41 24 0 38 8 57 32 22 28 23 34
11 51 -21 29 -67 57 -95 57 -14 0 -40 -8 -57 -16z"/>
<path d="M3698 10933 c7 -3 16 -2 19 1 4 3 -2 6 -13 5 -11 0 -14 -3 -6 -6z"/>
<path d="M4854 10924 c-18 -15 -18 -15 8 -11 15 2 29 0 31 -6 1 -5 13 -7 25
-3 24 8 30 23 10 23 -7 0 -22 3 -34 6 -12 4 -28 1 -40 -9z"/>
<path d="M5228 10933 c6 -2 18 -2 25 0 6 3 1 5 -13 5 -14 0 -19 -2 -12 -5z"/>
<path d="M2748 10923 c7 -3 16 -2 19 1 4 3 -2 6 -13 5 -11 0 -14 -3 -6 -6z"/>
<path d="M3355 10921 c3 -5 0 -11 -7 -13 -7 -3 -8 -7 -3 -10 6 -3 15 0 22 7
10 10 9 14 -3 19 -8 3 -13 2 -9 -3z"/>
<path d="M5128 10920 c-25 -7 -79 -40 -66 -40 3 0 23 7 44 17 22 9 55 19 74
23 34 7 34 8 5 8 -16 0 -42 -3 -57 -8z"/>
<path d="M2935 10900 c-3 -5 1 -10 9 -10 9 0 16 5 16 10 0 6 -4 10 -9 10 -6 0
-13 -4 -16 -10z"/>
<path d="M6876 10895 c10 -8 28 -14 39 -14 14 0 10 4 -14 14 -42 19 -50 19
-25 0z"/>
<path d="M4775 10890 c-7 -12 2 -12 30 0 19 8 19 9 -2 9 -12 1 -25 -3 -28 -9z"/>
<path d="M2635 10880 c3 -5 8 -10 11 -10 2 0 4 5 4 10 0 6 -5 10 -11 10 -5 0
-7 -4 -4 -10z"/>
<path d="M3185 10881 c-29 -7 -30 -7 -6 -15 16 -6 28 -3 39 8 17 17 14 18 -33
7z"/>
<path d="M4845 10880 c-3 -5 1 -10 9 -10 9 0 16 5 16 10 0 6 -4 10 -9 10 -6 0
-13 -4 -16 -10z"/>
<path d="M2445 10869 c-11 -17 -2 -18 25 -4 24 14 24 14 3 15 -12 0 -25 -5
-28 -11z"/>
<path d="M2515 10870 c-3 -5 -4 -10 -1 -10 2 0 12 -3 22 -7 13 -5 15 -3 9 7
-6 10 -2 11 21 6 21 -5 25 -4 14 4 -19 13 -57 13 -65 0z"/>
<path d="M4700 10870 c0 -5 5 -10 11 -10 5 0 7 5 4 10 -3 6 -8 10 -11 10 -2 0
-4 -4 -4 -10z"/>
<path d="M4920 10860 c-8 -5 -10 -10 -5 -10 6 0 17 5 25 10 8 5 11 10 5 10 -5
0 -17 -5 -25 -10z"/>
<path d="M2460 10846 c0 -2 7 -6 15 -10 8 -3 15 -1 15 4 0 6 -7 10 -15 10 -8
0 -15 -2 -15 -4z"/>
<path d="M4772 10834 c10 -10 23 -14 34 -10 21 8 17 11 -21 20 -28 7 -29 6
-13 -10z"/>
<path d="M4943 10829 c-18 -12 -33 -23 -33 -25 0 -7 58 25 65 36 9 14 5 13
-32 -11z"/>
<path d="M6166 10835 c7 -16 39 -20 48 -6 3 5 -4 11 -17 15 -33 9 -37 7 -31
-9z"/>
<path d="M2496 10820 c-15 -5 -16 -9 -7 -14 7 -5 18 -3 24 3 14 14 6 20 -17
11z"/>
<path d="M6260 10820 c20 -13 43 -13 35 0 -3 6 -16 10 -28 10 -18 0 -19 -2 -7
-10z"/>
<path d="M6942 10815 c-11 -12 -10 -15 3 -15 8 0 15 7 15 15 0 18 -2 18 -18 0z"/>
<path d="M2396 10790 c-30 -9 -76 -47 -76 -63 0 -5 7 -4 16 4 13 11 14 9 9
-13 -5 -20 -2 -29 13 -37 42 -22 132 -6 132 24 0 8 7 15 15 15 20 0 8 29 -23
58 -27 23 -40 25 -86 12z m4 -90 c0 -5 -2 -10 -4 -10 -3 0 -8 5 -11 10 -3 6
-1 10 4 10 6 0 11 -4 11 -10z"/>
<path d="M6640 10785 c-7 -9 -10 -18 -6 -22 3 -3 6 -1 6 5 0 16 27 15 33 0 2
-7 8 -10 12 -6 8 8 -12 38 -25 38 -4 0 -13 -7 -20 -15z"/>
<path d="M6372 10773 c2 -10 10 -17 16 -15 7 1 12 -2 12 -8 0 -5 5 -10 10 -10
6 0 10 9 10 20 0 13 -5 18 -15 14 -8 -4 -15 -1 -15 5 0 6 -5 11 -11 11 -6 0
-9 -8 -7 -17z"/>
<path d="M6845 10760 c-20 -38 -19 -40 8 -41 l22 0 -23 -9 c-27 -11 -61 -2
-40 11 8 6 9 9 2 9 -7 0 -14 7 -18 15 -4 13 -2 14 14 5 17 -9 20 -8 20 10 0
24 -3 24 -40 5 -29 -15 -33 -23 -31 -55 0 -10 -1 -11 -5 -2 -3 6 -13 12 -22
12 -14 -1 -13 -4 5 -19 12 -10 20 -21 16 -24 -3 -4 -2 -14 1 -24 6 -14 9 -15
15 -4 6 9 11 10 15 2 4 -6 2 -11 -4 -11 -6 0 -8 -4 -5 -10 3 -5 2 -10 -4 -10
-5 0 -13 5 -16 10 -3 6 -11 10 -17 10 -6 0 -5 -6 3 -16 10 -13 29 -15 97 -12
79 3 85 5 112 34 36 41 31 75 -16 98 -19 9 -41 16 -49 16 -9 0 -12 6 -9 15 11
28 -15 15 -31 -15z m-10 -109 c-3 -6 -11 -11 -17 -11 -6 0 -6 6 2 15 14 17 26
13 15 -4z"/>
<path d="M2802 10757 c-6 -7 -8 -23 -5 -36 5 -19 10 -22 36 -17 17 3 36 11 44
17 15 13 18 33 3 24 -6 -3 -7 1 -4 9 5 13 -1 16 -29 16 -19 0 -39 -6 -45 -13z"/>
<path d="M3215 10730 c-3 -5 -1 -10 4 -10 6 0 11 5 11 10 0 6 -2 10 -4 10 -3
0 -8 -4 -11 -10z"/>
<path d="M6430 10730 c0 -18 40 -32 56 -19 22 18 17 24 -21 26 -19 1 -35 -2
-35 -7z"/>
<path d="M6597 10720 c-3 -12 0 -20 7 -20 6 0 17 9 24 20 11 17 10 20 -7 20
-10 0 -21 -9 -24 -20z"/>
<path d="M2000 10699 c-35 -31 -35 -31 -3 -9 18 11 35 25 38 30 10 16 2 11
-35 -21z"/>
<path d="M2190 10720 c0 -5 -15 -17 -32 -26 -30 -16 -31 -18 -13 -25 22 -8 13
-12 -22 -10 -11 1 -24 -3 -28 -8 -3 -6 0 -11 7 -11 7 0 24 -15 37 -33 14 -19
21 -24 17 -12 -5 16 -1 14 18 -7 30 -34 56 -36 57 -5 1 19 2 20 6 3 5 -18 6
-18 19 5 13 23 13 23 14 3 0 -23 26 -51 37 -41 3 4 0 13 -7 22 -10 12 -10 15
1 15 12 0 12 2 1 9 -8 4 -13 11 -13 15 3 20 -1 26 -14 26 -9 0 -15 10 -15 26
0 39 -18 64 -45 64 -14 0 -25 -4 -25 -10z"/>
<path d="M7118 10723 c7 -3 16 -2 19 1 4 3 -2 6 -13 5 -11 0 -14 -3 -6 -6z"/>
<path d="M6520 10688 c0 -5 11 -8 25 -8 14 0 25 4 25 9 0 5 -11 8 -25 7 -14 0
-25 -4 -25 -8z"/>
<path d="M4721 10623 c-1 -40 2 -41 25 -5 14 21 14 24 2 14 -14 -11 -17 -10
-21 5 -3 10 -5 3 -6 -14z"/>
<path d="M6670 10600 c0 -15 21 -23 32 -12 6 6 2 11 -11 15 -12 3 -21 1 -21
-3z"/>
<path d="M2421 10584 l-23 -12 22 -7 c12 -4 27 -2 33 4 18 18 -5 29 -32 15z"/>
<path d="M7030 10600 c-8 -27 -3 -39 25 -58 25 -18 37 -20 56 -13 13 5 17 10
9 11 -13 0 -13 2 -1 9 8 5 11 16 7 26 -5 13 -15 16 -46 13 -22 -2 -42 1 -44 7
-2 5 -5 8 -6 5z"/>
<path d="M2458 10550 c-21 -17 -42 -28 -48 -25 -6 4 -8 10 -5 15 3 5 2 11 -3
14 -4 2 -13 -4 -20 -15 -10 -15 -10 -19 0 -20 7 0 2 -4 -10 -10 -13 -5 -28 -7
-33 -3 -18 11 -9 -12 12 -29 11 -10 18 -21 15 -24 -3 -4 -13 2 -20 13 -8 11
-18 15 -23 10 -4 -5 -2 -11 5 -13 6 -3 12 -10 12 -17 0 -7 20 -12 55 -12 44
-1 55 2 56 15 0 12 3 11 9 -4 5 -11 9 -14 9 -6 1 7 7 11 14 8 6 -2 18 2 25 9
7 8 9 15 5 15 -4 1 -15 2 -23 3 -8 0 -17 16 -21 36 l-7 34 18 -24 c10 -14 22
-22 26 -18 3 4 -1 14 -10 23 -9 9 -16 19 -16 23 0 3 5 1 12 -6 7 -7 17 -12 23
-12 5 0 3 4 -5 10 -8 5 -11 12 -7 16 4 4 18 -3 32 -16 14 -13 25 -18 25 -12 0
7 -5 12 -10 12 -6 0 -10 8 -8 18 5 31 -43 26 -84 -8z m-19 -43 c-9 -7 -14 -19
-11 -27 5 -13 3 -13 -12 -1 -16 14 -16 15 6 27 29 17 38 17 17 1z"/>
<path d="M6500 10570 c0 -13 40 -13 60 0 11 7 5 10 -22 10 -21 0 -38 -4 -38
-10z"/>
<path d="M6936 10568 c3 -4 12 -8 20 -8 8 0 14 4 14 8 0 4 -9 8 -19 8 -11 0
-17 -4 -15 -8z"/>
<path d="M6835 10550 c-16 -7 -17 -9 -3 -9 9 -1 20 -6 24 -13 5 -8 2 -9 -9 -5
-9 3 -19 2 -22 -3 -4 -6 9 -10 29 -10 35 0 47 12 26 25 -6 4 -8 11 -5 16 7 11
-13 11 -40 -1z"/>
<path d="M6722 10542 c-7 -2 -12 -8 -12 -14 0 -6 7 -8 15 -5 17 7 30 -9 15
-18 -5 -3 -10 -12 -10 -18 0 -7 6 -4 14 5 7 10 17 14 21 10 5 -4 5 -1 1 6 -4
6 -2 12 3 12 6 0 11 4 11 9 0 10 -40 19 -58 13z"/>
<path d="M6936 10531 c-21 -23 -20 -28 4 -34 17 -4 20 -2 15 13 -4 13 0 20 12
22 16 3 16 4 1 10 -9 4 -23 0 -32 -11z"/>
<path d="M2848 10533 c6 -2 12 -11 12 -19 0 -9 5 -12 10 -9 13 8 -6 35 -24 34
-7 0 -6 -2 2 -6z"/>
<path d="M7155 10531 c-8 -15 3 -31 21 -31 9 0 14 7 12 17 -4 20 -24 28 -33
14z"/>
<path d="M2530 10505 c10 -12 10 -15 0 -15 -8 0 -11 -3 -7 -6 3 -3 10 -3 16 0
12 8 3 36 -11 36 -6 0 -5 -6 2 -15z"/>
<path d="M2272 10494 c-7 -8 -8 -14 -3 -14 10 0 25 19 20 25 -2 1 -10 -3 -17
-11z"/>
<path d="M6486 10493 c-6 -14 6 -16 42 -7 31 9 27 21 -8 21 -16 0 -31 -6 -34
-14z"/>
<path d="M2595 10490 c-3 -5 1 -10 9 -10 9 0 16 5 16 10 0 6 -4 10 -9 10 -6 0
-13 -4 -16 -10z"/>
<path d="M2753 10471 c2 -26 6 -31 27 -31 22 0 25 4 25 28 -1 21 -7 28 -28 30
-24 3 -26 0 -24 -27z"/>
<path d="M3085 10490 c4 -6 11 -8 16 -5 14 9 11 15 -7 15 -8 0 -12 -5 -9 -10z"/>
<path d="M7750 10485 c-9 -11 -14 -110 -20 -368 -4 -193 -6 -354 -4 -355 6 -8
14 111 18 281 3 98 8 182 11 187 3 6 1 10 -6 10 -8 0 -8 4 -1 13 8 9 23 247
16 247 -1 0 -7 -7 -14 -15z"/>
<path d="M2824 10468 c-3 -4 6 -8 20 -8 14 0 26 4 26 9 0 11 -39 10 -46 -1z"/>
<path d="M6747 10468 c-24 -15 2 -19 30 -4 26 13 26 15 5 13 -12 -1 -28 -5
-35 -9z"/>
<path d="M7158 10473 c-10 -2 -18 -9 -18 -14 0 -13 12 -11 34 6 20 15 16 17
-16 8z"/>
<path d="M6855 10460 c-3 -6 1 -7 9 -4 18 7 21 14 7 14 -6 0 -13 -4 -16 -10z"/>
<path d="M2251 10456 c12 -10 59 -15 59 -6 0 5 -14 10 -32 10 -17 0 -29 -2
-27 -4z"/>
<path d="M3110 10450 c0 -5 7 -10 15 -10 8 0 15 5 15 10 0 6 -7 10 -15 10 -8
0 -15 -4 -15 -10z"/>
<path d="M6045 10440 c-10 -11 -16 -22 -13 -25 3 -3 13 6 22 20 20 30 16 32
-9 5z"/>
<path d="M2495 10421 c-3 -5 -1 -12 5 -16 5 -3 10 1 10 9 0 18 -6 21 -15 7z"/>
<path d="M2760 10421 c0 -11 59 -26 67 -17 3 3 -6 10 -21 16 -34 12 -46 13
-46 1z"/>
<path d="M6530 10420 c0 -5 5 -10 10 -10 6 0 10 5 10 10 0 6 -4 10 -10 10 -5
0 -10 -4 -10 -10z"/>
<path d="M6785 10420 c3 -5 11 -10 16 -10 6 0 7 5 4 10 -3 6 -11 10 -16 10 -6
0 -7 -4 -4 -10z"/>
<path d="M2415 10410 c-3 -6 1 -7 9 -4 18 7 21 14 7 14 -6 0 -13 -4 -16 -10z"/>
<path d="M2530 10411 c0 -5 7 -14 15 -21 10 -9 15 -9 15 -1 0 6 -5 11 -11 11
-5 0 -7 5 -4 10 3 6 1 10 -4 10 -6 0 -11 -4 -11 -9z"/>
<path d="M6885 10390 c3 -5 8 -10 11 -10 2 0 4 5 4 10 0 6 -5 10 -11 10 -5 0
-7 -4 -4 -10z"/>
<path d="M2741 10373 c7 -10 15 -20 16 -22 2 -2 3 5 3 17 0 14 -6 22 -16 22
-14 0 -15 -3 -3 -17z"/>
<path d="M6433 10384 c3 -4 2 -15 -4 -25 -12 -23 3 -25 21 -4 13 15 6 35 -12
35 -6 0 -8 -3 -5 -6z"/>
<path d="M6737 10383 c-26 -7 -10 -23 21 -22 15 0 21 3 14 6 -6 2 -10 9 -6 14
5 9 1 10 -29 2z"/>
<path d="M2637 10369 c7 -7 15 -10 18 -7 3 3 -2 9 -12 12 -14 6 -15 5 -6 -5z"/>
<path d="M6863 10355 c0 -8 4 -12 9 -9 4 3 8 9 8 15 0 5 -4 9 -8 9 -5 0 -9 -7
-9 -15z"/>
<path d="M1837 10349 c7 -7 15 -10 18 -7 3 3 -2 9 -12 12 -14 6 -15 5 -6 -5z"/>
<path d="M2460 10340 c0 -5 5 -10 10 -10 6 0 10 5 10 10 0 6 -4 10 -10 10 -5
0 -10 -4 -10 -10z"/>
<path d="M6650 10340 c-13 -9 -11 -14 12 -34 24 -21 31 -23 52 -13 16 8 20 14
13 19 -6 4 -14 2 -18 -4 -4 -7 -13 -7 -28 1 -24 13 -29 33 -6 25 8 -4 15 -1
15 5 0 14 -20 14 -40 1z"/>
<path d="M2855 10330 c-3 -5 -1 -10 4 -10 6 0 11 5 11 10 0 6 -2 10 -4 10 -3
0 -8 -4 -11 -10z"/>
<path d="M1890 10324 c0 -7 211 -106 216 -102 2 3 -46 27 -106 55 -61 28 -110
49 -110 47z"/>
<path d="M6283 10323 c9 -2 23 -2 30 0 6 3 -1 5 -18 5 -16 0 -22 -2 -12 -5z"/>
<path d="M7210 10320 c-9 -6 -10 -10 -3 -10 6 0 15 5 18 10 8 12 4 12 -15 0z"/>
<path d="M7160 10300 c-8 -5 -10 -10 -5 -10 6 0 17 5 25 10 8 5 11 10 5 10 -5
0 -17 -5 -25 -10z"/>
<path d="M2890 10276 c0 -8 5 -18 10 -21 6 -3 10 1 10 9 0 8 -4 18 -10 21 -5
3 -10 -1 -10 -9z"/>
<path d="M7110 10280 c-8 -5 -10 -10 -5 -10 6 0 17 5 25 10 8 5 11 10 5 10 -5
0 -17 -5 -25 -10z"/>
<path d="M6950 10220 c-8 -5 -10 -10 -5 -10 6 0 17 5 25 10 8 5 11 10 5 10 -5
0 -17 -5 -25 -10z"/>
<path d="M2130 10210 c8 -5 20 -10 25 -10 6 0 3 5 -5 10 -8 5 -19 10 -25 10
-5 0 -3 -5 5 -10z"/>
<path d="M1845 10200 c-3 -5 -2 -10 4 -10 5 0 13 5 16 10 3 6 2 10 -4 10 -5 0
-13 -4 -16 -10z"/>
<path d="M7464 10179 c14 -17 26 -35 26 -41 0 -6 3 -9 6 -6 9 9 -23 65 -42 72
-10 4 -7 -4 10 -25z"/>
<path d="M2210 10180 c8 -5 20 -10 25 -10 6 0 3 5 -5 10 -8 5 -19 10 -25 10
-5 0 -3 -5 5 -10z"/>
<path d="M1770 10159 c-17 -14 -21 -22 -12 -26 6 -2 12 -9 12 -14 0 -6 -5 -7
-12 -3 -7 5 -8 3 -2 -7 5 -8 7 -21 6 -31 -2 -9 2 -19 8 -23 5 -3 10 -14 10
-23 0 -20 36 -46 50 -37 6 4 10 1 10 -4 0 -20 20 -11 30 12 5 12 9 16 9 9 1
-7 5 -11 10 -7 5 3 8 21 6 40 -2 19 1 35 6 35 19 0 8 22 -30 60 -44 45 -65 49
-101 19z m90 -44 c0 -24 -30 -42 -50 -30 -5 3 -10 1 -10 -6 0 -23 -13 1 -16
30 -3 24 0 30 19 33 38 6 57 -3 57 -27z m30 -69 c0 -3 -4 -8 -10 -11 -5 -3
-10 -1 -10 4 0 6 5 11 10 11 6 0 10 -2 10 -4z"/>
<path d="M1815 10100 c3 -5 10 -10 16 -10 5 0 9 5 9 10 0 6 -7 10 -16 10 -8 0
-12 -4 -9 -10z"/>
<path d="M7330 10141 c-12 -18 -16 -32 -10 -36 5 -3 10 0 10 7 0 8 7 5 18 -8
17 -20 18 -20 52 -2 36 19 34 21 -14 18 -23 -1 -28 2 -23 14 4 9 2 16 -4 16
-6 0 -7 5 -4 10 14 23 -5 8 -25 -19z"/>
<path d="M7380 10155 c0 -12 5 -15 16 -11 9 4 23 1 31 -5 15 -13 32 -4 17 10
-5 5 -21 13 -36 16 -22 6 -28 4 -28 -10z"/>
<path d="M1986 10105 c-9 -7 -16 -17 -16 -23 0 -6 -5 -14 -12 -18 -8 -5 -9 -2
-5 10 4 9 3 15 -2 12 -5 -3 -11 -19 -13 -36 -3 -23 0 -31 14 -36 10 -3 16 -10
12 -15 -3 -6 -12 -8 -20 -5 -8 3 -14 1 -14 -5 0 -17 25 -20 59 -6 33 14 60 63
61 108 0 21 -42 30 -64 14z"/>
<path d="M7408 10092 c-10 -2 -18 -8 -18 -13 0 -13 27 -11 35 2 9 13 4 16 -17
11z"/>
<path d="M7217 10074 c6 -17 44 -15 51 4 2 8 -7 12 -27 12 -23 0 -29 -4 -24
-16z"/>
<path d="M7315 10070 c-3 -5 1 -10 10 -10 9 0 13 5 10 10 -3 6 -8 10 -10 10
-2 0 -7 -4 -10 -10z"/>
<path d="M7492 10050 c0 -19 2 -27 5 -17 2 9 2 25 0 35 -3 9 -5 1 -5 -18z"/>
<path d="M2240 10050 c0 -5 5 -10 11 -10 5 0 7 5 4 10 -3 6 -8 10 -11 10 -2 0
-4 -4 -4 -10z"/>
<path d="M7127 10031 c6 -24 34 -36 45 -19 13 21 9 31 -8 24 -9 -4 -22 -2 -29
4 -11 9 -12 7 -8 -9z"/>
<path d="M6635 10010 c-52 -14 -58 -17 -25 -13 47 6 135 31 110 31 -8 0 -46
-8 -85 -18z"/>
<path d="M7054 9994 c3 -9 6 -20 6 -25 0 -5 7 -9 17 -9 14 0 14 2 -3 21 -19
21 -19 22 4 15 13 -5 22 -3 22 3 0 6 -12 11 -26 11 -20 0 -25 -4 -20 -16z"/>
<path d="M7139 9986 c-5 -6 -2 -66 3 -66 4 0 5 -6 2 -14 -3 -8 -1 -17 5 -21
12 -7 14 4 11 48 -1 15 3 27 9 27 6 0 8 6 5 13 -4 10 -29 19 -35 13z"/>
<path d="M1686 9952 c10 -18 37 -47 59 -64 40 -31 30 -19 -73 92 -3 3 3 -10
14 -28z"/>
<path d="M6458 9963 c7 -3 16 -2 19 1 4 3 -2 6 -13 5 -11 0 -14 -3 -6 -6z"/>
<path d="M6408 9953 c7 -3 16 -2 19 1 4 3 -2 6 -13 5 -11 0 -14 -3 -6 -6z"/>
<path d="M7040 9950 c0 -5 5 -10 11 -10 5 0 7 5 4 10 -3 6 -8 10 -11 10 -2 0
-4 -4 -4 -10z"/>
<path d="M7302 9948 c-7 -7 -11 -26 -11 -42 1 -23 3 -25 6 -9 6 29 34 34 56 9
9 -10 17 -14 17 -8 0 6 3 18 6 26 4 12 2 15 -9 11 -8 -4 -17 1 -20 9 -8 19
-28 21 -45 4z"/>
<path d="M1573 9915 c0 -22 2 -30 4 -17 2 12 2 30 0 40 -3 9 -5 -1 -4 -23z"/>
<path d="M1997 9910 c3 -11 12 -20 21 -20 13 0 12 3 -3 20 -10 11 -19 20 -21
20 -1 0 0 -9 3 -20z"/>
<path d="M6408 9923 c6 -2 18 -2 25 0 6 3 1 5 -13 5 -14 0 -19 -2 -12 -5z"/>
<path d="M6565 9920 c3 -5 10 -10 16 -10 5 0 9 5 9 10 0 6 -7 10 -16 10 -8 0
-12 -4 -9 -10z"/>
<path d="M1866 9904 c-14 -37 41 -77 65 -48 18 22 -4 64 -35 64 -13 0 -27 -7
-30 -16z"/>
<path d="M6600 9910 c0 -5 7 -7 15 -4 8 4 15 8 15 10 0 2 -7 4 -15 4 -8 0 -15
-4 -15 -10z"/>
<path d="M7107 9900 c3 -11 7 -20 9 -20 2 0 4 9 4 20 0 11 -4 20 -9 20 -5 0
-7 -9 -4 -20z"/>
<path d="M7060 9901 c0 -5 5 -13 10 -16 6 -3 10 -2 10 4 0 5 -4 13 -10 16 -5
3 -10 2 -10 -4z"/>
<path d="M7311 9873 c0 -25 1 -26 9 -8 12 27 12 35 0 35 -5 0 -10 -12 -9 -27z"/>
<path d="M2250 9860 c0 -5 5 -10 11 -10 5 0 7 5 4 10 -3 6 -8 10 -11 10 -2 0
-4 -4 -4 -10z"/>
<path d="M7116 9844 c-9 -8 -16 -31 -16 -51 0 -33 2 -35 25 -29 30 8 34 -10 4
-19 -11 -4 -18 -9 -15 -12 3 -3 23 3 45 13 37 17 41 23 41 57 0 31 -3 37 -21
37 -11 0 -17 5 -14 10 10 16 -32 11 -49 -6z"/>
<path d="M2140 9830 c-9 -6 -10 -10 -3 -10 6 0 15 5 18 10 8 12 4 12 -15 0z"/>
<path d="M6684 9828 c3 -12 0 -18 -10 -18 -8 0 -12 -5 -9 -11 4 -6 13 -8 21
-5 8 3 14 1 14 -4 0 -6 5 -10 11 -10 5 0 8 4 4 9 -3 5 -1 12 5 16 16 10 11 25
-6 18 -9 -3 -20 0 -26 8 -8 11 -9 10 -4 -3z"/>
<path d="M6757 9819 c-13 -8 -15 -14 -8 -23 8 -9 4 -16 -13 -26 -26 -13 -25
-45 1 -36 8 3 11 1 8 -4 -3 -6 0 -10 8 -10 8 0 18 8 21 17 5 12 9 14 18 5 17
-17 39 -15 65 6 15 11 20 21 14 31 -7 11 -14 11 -41 -2 -26 -14 -31 -14 -26
-2 3 8 -3 23 -12 34 -13 16 -21 18 -35 10z"/>
<path d="M2010 9810 c0 -5 8 -10 18 -10 16 -1 16 -1 -1 -14 -16 -13 -15 -14
12 -18 30 -4 30 -4 15 24 -14 27 -44 39 -44 18z"/>
<path d="M2250 9810 c0 -5 5 -10 10 -10 6 0 10 5 10 10 0 6 -4 10 -10 10 -5 0
-10 -4 -10 -10z"/>
<path d="M1583 9755 c0 -22 2 -30 4 -17 2 12 2 30 0 40 -3 9 -5 -1 -4 -23z"/>
<path d="M2753 9763 c9 -2 23 -2 30 0 6 3 -1 5 -18 5 -16 0 -22 -2 -12 -5z"/>
<path d="M7531 9754 c0 -11 3 -14 6 -6 3 7 2 16 -1 19 -3 4 -6 -2 -5 -13z"/>
<path d="M6913 9725 c0 -22 2 -30 4 -17 2 12 2 30 0 40 -3 9 -5 -1 -4 -23z"/>
<path d="M6510 9720 c-19 -27 -20 -31 -6 -58 13 -26 20 -29 52 -25 38 4 94 31
94 45 0 4 11 8 25 8 14 0 25 5 25 10 0 6 -9 10 -20 10 -12 0 -38 9 -60 20 -56
28 -85 26 -110 -10z"/>
<path d="M6680 9740 c-12 -8 -10 -10 8 -10 13 0 20 4 17 10 -7 12 -6 12 -25 0z"/>
<path d="M7643 9700 c0 -30 2 -43 4 -27 2 15 2 39 0 55 -2 15 -4 2 -4 -28z"/>
<path d="M3865 9735 c23 -8 83 -10 79 -3 -3 4 -24 8 -47 7 -23 0 -37 -2 -32
-4z"/>
<path d="M4295 9720 c4 -6 11 -8 16 -5 14 9 11 15 -7 15 -8 0 -12 -5 -9 -10z"/>
<path d="M3163 9691 c-44 -22 -49 -48 -13 -66 45 -23 78 -19 113 16 l31 32
-23 18 c-27 22 -64 22 -108 0z m107 -11 c0 -5 -4 -10 -10 -10 -5 0 -10 5 -10
10 0 6 5 10 10 10 6 0 10 -4 10 -10z"/>
<path d="M3868 9683 c6 -2 18 -2 25 0 6 3 1 5 -13 5 -14 0 -19 -2 -12 -5z"/>
<path d="M6780 9681 c0 -6 3 -11 8 -12 4 0 17 -2 30 -3 12 -2 22 1 22 6 0 4
-6 8 -14 8 -8 0 -21 3 -30 6 -9 3 -16 1 -16 -5z"/>
<path d="M1592 9640 c0 -14 2 -19 5 -12 2 6 2 18 0 25 -3 6 -5 1 -5 -13z"/>
<path d="M6290 9634 c-26 -48 25 -82 76 -50 45 30 21 76 -39 76 -15 0 -28 -9
-37 -26z"/>
<path d="M6730 9618 c0 -4 11 -8 25 -8 14 0 25 4 25 10 0 5 -11 9 -25 8 -14
-1 -25 -6 -25 -10z"/>
<path d="M7626 9543 c-3 -49 -13 -135 -21 -193 -8 -58 -26 -202 -41 -320 -63
-524 -76 -607 -144 -942 -80 -395 -187 -795 -277 -1038 -79 -212 -125 -315
-255 -575 -217 -434 -378 -612 -693 -765 -265 -130 -541 -199 -1036 -261 -208
-26 -643 -36 -849 -20 -191 15 -437 53 -580 89 -63 16 -117 28 -118 27 -2 -2
13 -13 35 -25 37 -20 37 -20 8 -16 -16 3 -50 8 -75 11 -62 9 -193 55 -203 71
-4 8 -15 14 -23 14 -8 0 -74 25 -146 55 -191 80 -412 233 -524 362 -121 139
-297 453 -456 813 -124 281 -291 791 -363 1110 -68 305 -114 528 -141 693 -15
92 -29 165 -31 163 -16 -16 136 -799 196 -1015 96 -338 215 -700 283 -856 22
-49 47 -108 56 -130 65 -156 235 -475 340 -640 56 -87 175 -225 234 -270 20
-15 34 -33 31 -38 -3 -6 -1 -7 4 -4 9 5 134 -78 153 -101 8 -9 -52 28 -75 47
-29 24 -67 42 -94 44 -28 2 -157 125 -218 208 -107 146 -319 544 -423 797 -24
56 -44 101 -46 99 -8 -7 80 -208 181 -412 210 -426 338 -601 560 -767 183
-138 360 -219 605 -278 424 -102 707 -135 1160 -135 329 1 522 14 780 55 137
22 439 95 565 135 118 39 308 134 407 205 104 74 282 255 359 365 83 118 200
334 297 550 85 191 177 448 167 466 -4 5 -1 9 5 9 7 0 9 7 6 16 -3 8 10 54 28
103 30 76 69 215 137 496 80 325 154 792 194 1215 9 91 22 233 30 315 18 196
28 355 22 355 -2 0 -7 -39 -11 -87z m-609 -2927 c-52 -112 -80 -162 -57 -102
7 21 8 31 0 36 -13 8 15 67 39 79 10 6 23 28 30 50 6 23 16 41 21 41 6 0 10 8
11 18 0 9 3 12 5 6 3 -6 -20 -63 -49 -128z m-133 -263 c-45 -83 -44 -82 -40
-47 6 41 17 65 27 59 4 -3 15 8 24 25 8 16 18 30 21 30 3 0 -11 -30 -32 -67z
m-59 -113 c-9 -16 -18 -30 -21 -30 -2 0 2 14 11 30 9 17 18 30 21 30 2 0 -2
-13 -11 -30z m-37 -60 c-7 -10 -14 -17 -17 -15 -4 4 18 35 25 35 2 0 -1 -9 -8
-20z"/>
<path d="M6995 6609 c-4 -6 -5 -12 -2 -15 2 -3 7 2 10 11 7 17 1 20 -8 4z"/>
<path d="M6975 6569 c-4 -6 -5 -12 -2 -15 2 -3 7 2 10 11 7 17 1 20 -8 4z"/>
<path d="M5373 9610 c-23 -10 -33 -50 -12 -50 6 0 9 -6 6 -14 -12 -31 86 -38
103 -7 12 23 13 58 2 65 -18 11 -79 15 -99 6z"/>
<path d="M6483 9588 c-32 -15 -29 -46 4 -59 34 -13 67 -5 94 22 16 16 18 23 8
35 -13 16 -74 18 -106 2z"/>
<path d="M3605 9580 c-3 -5 3 -10 14 -10 10 0 21 -5 23 -12 3 -7 10 -8 17 -3
10 6 8 11 -10 21 -29 16 -36 17 -44 4z"/>
<path d="M7521 9574 c0 -11 3 -14 6 -6 3 7 2 16 -1 19 -3 4 -6 -2 -5 -13z"/>
<path d="M3458 9563 c7 -3 16 -2 19 1 4 3 -2 6 -13 5 -11 0 -14 -3 -6 -6z"/>
<path d="M4240 9556 c0 -12 10 -16 35 -16 19 0 35 5 35 10 0 6 -9 10 -19 10
-11 0 -26 3 -35 6 -11 4 -16 1 -16 -10z"/>
<path d="M5863 9553 c-35 -17 -44 -47 -17 -57 20 -8 78 -8 98 0 9 4 21 15 27
25 8 16 6 21 -13 28 -52 19 -64 20 -95 4z"/>
<path d="M1602 9535 c0 -16 2 -22 5 -12 2 9 2 23 0 30 -3 6 -5 -1 -5 -18z"/>
<path d="M5058 9548 c8 -8 17 -8 34 0 22 10 21 11 -11 11 -27 1 -32 -2 -23
-11z"/>
<path d="M6080 9550 c0 -5 5 -10 10 -10 6 0 10 5 10 10 0 6 -4 10 -10 10 -5 0
-10 -4 -10 -10z"/>
<path d="M6292 9538 c-30 -30 4 -56 52 -39 35 14 33 27 -5 40 -38 13 -33 13
-47 -1z"/>
<path d="M5220 9510 c0 -5 5 -10 10 -10 6 0 10 5 10 10 0 6 -4 10 -10 10 -5 0
-10 -4 -10 -10z"/>
<path d="M5535 9480 c4 -6 11 -8 16 -5 14 9 11 15 -7 15 -8 0 -12 -5 -9 -10z"/>
<path d="M4480 9470 c0 -5 5 -10 10 -10 6 0 10 5 10 10 0 6 -4 10 -10 10 -5 0
-10 -4 -10 -10z"/>
<path d="M7210 9470 c0 -5 5 -10 11 -10 5 0 7 5 4 10 -3 6 -8 10 -11 10 -2 0
-4 -4 -4 -10z"/>
<path d="M5605 9460 c-3 -6 1 -13 9 -16 9 -3 14 -9 12 -13 -7 -11 7 -28 32
-35 13 -5 22 -3 22 3 0 6 -9 11 -20 11 -11 0 -20 5 -20 10 0 6 4 10 9 10 5 0
7 9 4 20 -6 21 -37 27 -48 10z"/>
<path d="M3910 9430 c-12 -8 -11 -10 8 -10 12 0 22 5 22 10 0 13 -11 13 -30 0z"/>
<path d="M1612 9400 c0 -14 2 -19 5 -12 2 6 2 18 0 25 -3 6 -5 1 -5 -13z"/>
<path d="M1622 9320 c0 -14 2 -19 5 -12 2 6 2 18 0 25 -3 6 -5 1 -5 -13z"/>
<path d="M1721 9263 c0 -10 7 -52 14 -93 14 -74 14 -74 9 -15 -2 32 -8 71 -11
85 -6 23 -5 24 13 10 19 -14 19 -14 0 8 -23 27 -26 27 -25 5z"/>
<path d="M7492 9260 c0 -14 2 -19 5 -12 2 6 2 18 0 25 -3 6 -5 1 -5 -13z"/>
<path d="M7527 9250 c-21 -16 -55 -44 -75 -62 -53 -48 -212 -158 -312 -215
-59 -34 -86 -56 -91 -73 -5 -16 -7 -19 -8 -7 -1 9 -2 17 -3 17 -7 0 -235 -83
-330 -119 -60 -23 -165 -57 -235 -77 -153 -42 -152 -42 -132 -43 9 -1 61 10
115 24 69 17 101 22 109 14 7 -7 5 -8 -6 -4 -21 8 -34 -22 -18 -41 9 -11 6
-14 -14 -14 -26 0 -53 -31 -40 -44 4 -4 -3 -9 -15 -13 -12 -3 -22 -12 -22 -20
0 -10 -6 -13 -15 -9 -10 4 -6 -9 13 -37 73 -109 103 -210 103 -355 0 -123 5
-165 20 -156 5 3 6 -2 3 -11 -8 -19 -20 -9 -27 20 -4 19 -5 18 -6 -2 -1 -24
25 -56 39 -48 5 3 12 0 16 -6 5 -8 3 -9 -5 -5 -8 6 -11 2 -9 -10 2 -11 10 -22
18 -26 11 -5 9 -7 -7 -7 -34 -1 -37 -18 -6 -35 15 -8 22 -15 16 -16 -23 0 -14
-18 13 -24 19 -5 25 -12 21 -25 -2 -10 2 -29 9 -42 12 -22 13 -22 14 -4 1 11
4 14 7 8 2 -7 12 -13 21 -14 15 0 15 -1 -1 -7 -14 -6 -11 -11 19 -27 25 -13
37 -16 42 -8 5 8 14 4 29 -11 14 -15 19 -27 13 -36 -5 -8 -4 -22 2 -33 7 -15
7 -22 -3 -28 -8 -5 -10 -9 -5 -9 5 0 3 -6 -3 -13 -6 -8 -12 -22 -14 -33 -1
-10 -6 -24 -10 -30 -4 -7 1 -15 11 -19 16 -6 16 -7 0 -19 -10 -7 -15 -16 -11
-19 3 -4 0 -13 -7 -22 -7 -8 -9 -15 -5 -15 4 0 2 -7 -5 -15 -7 -8 -16 -13 -20
-10 -4 3 -11 -2 -14 -11 -3 -8 -2 -12 4 -9 6 3 7 -1 4 -10 -4 -9 -9 -14 -11
-11 -5 5 -32 -15 -74 -55 -16 -15 -31 -24 -34 -21 -3 3 -5 0 -5 -5 0 -6 5 -13
11 -15 9 -3 -44 -58 -56 -58 -13 1 -65 -32 -65 -40 0 -6 -7 -10 -15 -10 -8 0
-15 -5 -15 -11 0 -6 -6 -9 -13 -6 -7 2 -26 -8 -41 -24 -16 -16 -34 -29 -39
-29 -5 0 -7 -7 -4 -15 4 -8 2 -17 -3 -20 -5 -3 -11 3 -13 12 -3 10 -4 6 -4 -9
1 -16 5 -28 9 -28 5 0 3 -9 -4 -20 -7 -11 -17 -19 -23 -18 -17 3 -55 -13 -55
-23 0 -5 4 -9 10 -9 5 0 2 -9 -8 -20 -15 -18 -18 -19 -28 -5 -15 21 -23 19
-17 -4 5 -20 -10 -23 -34 -8 -9 5 -17 -1 -25 -17 -7 -16 -19 -26 -32 -26 -17
0 -18 -2 -6 -10 10 -6 11 -10 2 -10 -6 0 -11 -3 -11 -7 1 -5 1 -17 0 -28 -1
-14 -7 -9 -21 20 -11 22 -20 36 -20 30 0 -5 -4 -4 -9 4 -7 10 -15 11 -37 3
-18 -7 -22 -11 -11 -11 15 -1 16 -3 5 -15 -9 -10 -15 -11 -20 -2 -7 10 -9 7
-12 -36 -1 -7 5 -12 12 -10 23 4 12 -18 -13 -24 -14 -3 -23 -10 -20 -14 3 -4
-3 -7 -13 -6 -11 0 -18 -7 -20 -21 -2 -13 -10 -23 -18 -23 -8 0 -14 -7 -14
-15 0 -8 -7 -15 -15 -15 -8 0 -15 -4 -15 -10 0 -5 -7 -10 -15 -10 -8 0 -15 9
-15 20 0 15 -7 20 -25 20 -22 0 -24 -3 -15 -19 5 -11 15 -23 20 -26 29 -18
-12 -95 -51 -95 -39 0 -53 66 -22 104 9 12 -3 2 -25 -21 -23 -23 -42 -39 -42
-36 0 3 -9 -2 -19 -11 -11 -10 -24 -15 -30 -11 -7 4 -8 0 -4 -11 5 -13 3 -16
-10 -11 -11 4 -22 -2 -32 -17 -9 -13 -25 -26 -36 -29 -13 -4 -18 -10 -13 -18
4 -8 3 -10 -4 -5 -7 4 -12 2 -12 -3 0 -6 -7 -11 -15 -11 -8 0 -15 5 -15 11 0
5 5 7 12 3 6 -4 8 -3 5 4 -11 17 -33 8 -65 -26 -17 -18 -35 -32 -42 -32 -6 0
-18 -7 -27 -15 -8 -8 -19 -13 -24 -10 -5 4 -6 -1 -3 -9 3 -9 9 -14 13 -11 4 2
8 -2 8 -10 0 -8 -3 -13 -6 -12 -15 3 -50 -15 -55 -29 -3 -8 -10 -13 -15 -10
-5 3 -11 -1 -14 -9 -5 -10 -13 -12 -34 -6 -59 17 -129 -15 -108 -49 3 -6 1
-10 -4 -10 -6 0 -11 8 -11 18 -1 16 -1 16 -11 0 -5 -10 -19 -18 -29 -18 -11 0
-20 -6 -20 -12 0 -8 -15 -13 -39 -13 -24 -1 -48 -8 -59 -19 -11 -9 -26 -16
-34 -15 -35 4 -48 -2 -48 -23 0 -18 -2 -20 -9 -8 -6 8 -7 18 -5 22 8 13 -6 9
-21 -6 -10 -10 -31 -13 -70 -10 -36 3 -55 0 -55 -7 0 -6 7 -8 16 -5 15 6 15 4
3 -11 -8 -9 -9 -14 -4 -11 6 4 17 3 25 -3 11 -6 8 -9 -12 -9 -15 0 -30 -4 -33
-10 -3 -5 -14 -10 -23 -9 -13 0 -12 3 6 11 25 13 29 28 7 28 -8 0 -15 -4 -15
-10 0 -5 -5 -10 -11 -10 -5 0 -7 6 -3 13 6 9 4 9 -8 -1 -9 -7 -20 -12 -24 -11
-25 4 -44 -3 -44 -16 0 -9 -12 -20 -26 -25 -31 -12 -47 -13 -40 -2 2 4 -4 9
-15 9 -10 1 -19 -2 -19 -8 0 -5 -10 -9 -22 -9 -19 0 -20 2 -8 11 12 9 10 10
-8 6 -19 -5 -21 -3 -11 9 6 8 9 14 5 14 -12 0 -51 -25 -59 -38 -6 -9 -12 -10
-21 -3 -9 8 -18 6 -32 -4 -19 -14 -19 -14 1 -16 11 -1 25 -1 32 0 29 4 20 -19
-13 -29 -37 -13 -59 -6 -34 10 10 7 11 10 3 10 -7 0 -13 8 -13 17 0 9 -3 13
-7 10 -3 -4 -15 0 -25 10 -10 9 -18 12 -18 7 0 -5 9 -15 20 -22 22 -13 17 -42
-8 -42 -13 0 -12 3 4 15 19 14 18 14 -3 15 -13 0 -23 -4 -23 -10 0 -5 -7 -10
-16 -10 -8 0 -12 -4 -9 -10 3 -6 -4 -10 -17 -10 -22 -1 -22 -1 -4 -15 18 -13
18 -14 -3 -12 -11 1 -21 5 -21 10 0 5 -11 6 -25 3 -14 -4 -25 -2 -25 2 0 11
-50 3 -66 -9 -7 -6 -16 -4 -23 5 -9 11 -9 15 1 19 9 4 7 6 -4 6 -9 1 -25 4
-35 7 -17 5 -17 5 0 -6 17 -11 24 -40 9 -40 -13 0 -35 47 -28 58 3 6 2 14 -4
17 -6 4 -9 1 -8 -7 2 -7 -4 -13 -12 -13 -8 0 -14 6 -12 13 1 8 -2 11 -7 7 -6
-3 -18 3 -27 14 -12 13 -23 17 -33 12 -19 -9 -69 -7 -93 3 -13 6 -18 4 -18 -7
0 -14 -5 -15 -37 -3 -21 7 -44 11 -50 9 -7 -3 -13 3 -13 11 0 9 -6 19 -14 22
-8 3 -13 13 -11 22 4 27 -14 42 -39 32 -20 -7 -22 -6 -18 16 3 18 11 24 31 24
25 1 25 1 6 16 -12 9 -21 11 -23 4 -2 -5 -9 -7 -14 -4 -7 4 -8 2 -4 -4 4 -7 1
-12 -7 -12 -8 0 -14 9 -13 22 2 30 -61 53 -86 30 -12 -9 -18 -11 -18 -4 0 7 6
12 13 12 7 1 5 6 -5 14 -10 7 -18 17 -18 22 0 16 -37 33 -61 27 -18 -5 -21 -3
-16 10 4 12 2 14 -10 10 -12 -5 -15 -2 -10 10 8 22 -25 39 -59 31 -21 -5 -25
-4 -20 7 4 8 2 7 -6 -2 -16 -20 -48 -16 -65 7 -12 16 -13 16 -13 2 0 -9 -5
-20 -12 -24 -7 -5 -9 -2 -6 7 3 8 -1 20 -8 27 -17 15 -17 13 -3 -44 6 -24 15
-44 21 -44 5 0 4 10 -2 23 -11 21 -10 21 4 3 10 -13 12 -23 6 -31 -12 -14 31
-110 54 -118 10 -4 13 -12 9 -23 -5 -13 -3 -15 7 -9 10 6 12 4 7 -8 -4 -10 -2
-16 5 -14 6 1 13 -4 16 -12 3 -8 0 -11 -7 -7 -19 12 7 -46 42 -89 17 -22 23
-33 13 -25 -58 46 -153 218 -216 391 -30 82 -49 122 -50 102 0 -6 4 -23 10
-37 8 -22 7 -26 -8 -26 -15 0 -15 -2 -2 -10 13 -8 12 -10 -4 -10 -12 0 -16 -5
-13 -14 4 -10 1 -13 -8 -10 -19 8 -38 -29 -23 -44 7 -7 10 -14 7 -16 -9 -9
-80 -13 -85 -5 -11 19 -25 9 -14 -10 7 -13 7 -22 0 -26 -10 -6 -14 1 -11 18 1
5 -3 6 -8 2 -11 -6 -34 29 -38 63 -3 18 1 22 24 23 21 1 23 3 8 6 -11 3 -37
21 -58 41 -30 29 -37 42 -33 62 5 24 5 24 -6 3 -8 -18 -7 -28 6 -48 15 -22 15
-25 1 -25 -9 0 -18 8 -21 18 -3 9 -10 26 -16 37 -8 14 -8 20 1 23 17 6 13 22
-5 22 -11 0 -14 5 -10 16 4 12 2 15 -9 10 -8 -3 -14 -2 -14 2 4 26 -2 32 -21
22 -15 -8 -26 -7 -45 6 -27 18 -32 43 -14 76 10 19 9 20 -7 13 -40 -16 -57
-18 -50 -7 4 7 3 12 -3 12 -6 0 -8 6 -5 14 3 8 -9 20 -31 30 -20 10 -45 26
-55 36 -10 10 -26 23 -36 28 -16 9 -17 14 -6 32 10 17 10 21 -4 27 -12 4 -13
8 -3 14 11 6 10 13 -1 33 -7 14 -15 24 -18 21 -3 -2 1 -13 9 -22 13 -17 13
-17 -7 0 -11 9 -24 14 -29 10 -4 -5 -5 -2 -1 5 4 6 2 12 -4 12 -7 0 -5 7 4 16
18 17 21 28 7 19 -6 -3 -14 3 -20 12 -10 17 -10 17 -11 -1 0 -17 -44 53 -72
115 -6 14 -24 34 -39 45 -30 20 -49 53 -49 84 0 10 -10 26 -22 34 -12 9 -17
16 -11 16 7 0 10 7 7 15 -4 8 -10 12 -15 10 -11 -8 -23 41 -13 56 4 7 3 9 -3
6 -6 -4 -14 0 -17 9 -10 25 -7 34 9 34 13 0 14 4 5 20 -6 11 -17 20 -24 20
-16 0 -28 41 -20 67 4 13 3 14 -3 5 -7 -9 -16 12 -31 70 -12 46 -23 95 -24
111 -1 15 -6 27 -11 27 -5 0 -7 17 -3 38 3 23 3 30 -3 17 -7 -17 -9 -14 -15
18 -4 20 -4 42 -1 47 3 6 1 10 -5 10 -8 0 -10 9 -6 26 8 31 -3 96 -15 89 -5
-3 -11 4 -13 17 -3 13 -21 97 -40 188 -49 230 -71 347 -92 478 -10 61 -21 112
-25 112 -4 0 0 -35 7 -77 138 -770 193 -1007 327 -1413 144 -438 379 -913 567
-1150 84 -105 205 -222 285 -275 33 -21 68 -49 78 -62 21 -26 48 -42 79 -48
27 -6 68 -33 68 -46 0 -6 5 -7 10 -4 5 3 10 1 10 -4 0 -6 7 -11 15 -11 8 0 15
-4 15 -10 0 -13 -1 -13 -56 10 -26 11 -49 19 -51 17 -6 -7 158 -76 245 -103
104 -32 119 -25 20 9 -68 24 -70 25 -32 24 23 -1 40 -5 37 -9 -2 -5 5 -8 16
-8 10 0 21 5 23 12 3 8 23 1 60 -20 30 -18 63 -32 72 -32 9 0 63 -14 119 -30
139 -42 473 -89 662 -94 169 -4 554 9 720 24 61 6 160 20 220 31 178 33 295
49 324 44 17 -4 20 -3 9 2 -13 6 3 14 60 31 217 63 470 176 577 257 95 72 256
237 324 332 150 210 244 396 356 698 209 570 336 1106 434 1835 16 124 33 255
37 293 4 37 10 67 13 67 3 0 7 28 9 63 2 38 9 67 18 75 9 8 10 8 4 0 -6 -7
-10 -35 -10 -62 0 -61 16 -46 25 24 4 25 10 55 15 68 5 12 9 22 7 21 -1 0 -19
-13 -40 -29z m-604 -402 c-29 -14 -38 -40 -18 -54 15 -11 15 -13 0 -22 -13 -7
-16 -19 -14 -50 3 -22 2 -39 -2 -36 -5 3 -19 -112 -23 -193 0 -12 -4 -19 -8
-15 -4 4 -3 39 2 77 4 39 11 119 15 178 7 98 10 109 29 117 30 12 45 11 19 -2z
m-16 -110 c-3 -8 -6 -5 -6 6 -1 11 2 17 5 13 3 -3 4 -12 1 -19z m-342 -58 c-3
-5 -11 -10 -16 -10 -6 0 -7 5 -4 10 3 6 11 10 16 10 6 0 7 -4 4 -10z m683 -98
c4 -27 -14 -52 -37 -51 -11 0 -9 3 7 9 27 11 31 56 5 64 -14 4 -14 4 2 3 12
-1 21 -11 23 -25z m-57 -9 c-12 -20 -14 -14 -5 12 4 9 9 14 11 11 3 -2 0 -13
-6 -23z m66 -168 c1 -16 1 -16 -3 -2 -6 20 -34 22 -54 5 -12 -11 -12 -10 0 5
17 23 54 18 57 -8z m-406 -16 c-5 -13 -10 -19 -10 -12 -1 15 10 45 15 40 3 -2
0 -15 -5 -28z m364 -28 c-6 -5 -25 10 -25 20 0 5 6 4 14 -3 8 -7 12 -15 11
-17z m-378 -33 c-3 -8 -6 -5 -6 6 -1 11 2 17 5 13 3 -3 4 -12 1 -19z m-10 -70
c-2 -13 -4 -5 -4 17 -1 22 1 32 4 23 2 -10 2 -28 0 -40z m368 4 c-3 -3 -11 0
-18 7 -9 10 -8 11 6 5 10 -3 15 -9 12 -12z m-43 -4 c-7 -7 -12 -18 -12 -25 0
-19 27 -16 39 5 6 9 11 12 11 5 0 -15 -40 -44 -52 -37 -10 6 -11 48 -1 57 3 4
11 7 17 7 6 0 5 -5 -2 -12z m-335 -80 c-3 -7 -5 -2 -5 12 0 14 2 19 5 13 2 -7
2 -19 0 -25z m-10 -95 c-3 -10 -5 -2 -5 17 0 19 2 27 5 18 2 -10 2 -26 0 -35z
m-4780 -145 c-3 -7 -5 -2 -5 12 0 14 2 19 5 13 2 -7 2 -19 0 -25z m4748 -25
c-2 -32 -4 -68 -5 -81 0 -13 -4 -21 -9 -18 -5 4 -8 18 -6 34 12 95 17 122 20
122 2 0 2 -26 0 -57z m22 -138 c0 -8 -4 -12 -9 -9 -5 3 -6 10 -3 15 9 13 12
11 12 -6z m100 -37 c-3 -8 -6 -5 -6 6 -1 11 2 17 5 13 3 -3 4 -12 1 -19z m33
-358 c0 -11 -2 -20 -4 -20 -2 0 -6 9 -9 20 -3 11 -1 20 4 20 5 0 9 -9 9 -20z
m-4666 -240 c5 -20 3 -19 -8 5 -7 17 -16 41 -20 55 -5 20 -3 19 8 -5 7 -16 16
-41 20 -55z m21 30 c3 -5 1 -10 -4 -10 -6 0 -11 5 -11 10 0 6 2 10 4 10 3 0 8
-4 11 -10z m4135 -54 c0 -3 -4 -8 -10 -11 -5 -3 -10 -1 -10 4 0 6 5 11 10 11
6 0 10 -2 10 -4z m-196 -372 c9 -8 16 -22 16 -30 0 -19 -44 -64 -63 -64 -44 0
-51 72 -9 94 34 19 37 19 56 0z m-2884 -351 c0 -13 -14 -28 -27 -30 -8 -2 -10
4 -6 14 5 12 3 14 -7 8 -9 -5 -11 -4 -6 3 8 13 46 17 46 5z m23 -54 c-4 -15
-8 -17 -14 -8 -6 11 4 28 18 29 0 0 -1 -9 -4 -21z m-461 -1 c41 -34 62 -98 37
-114 -6 -3 -31 13 -55 37 -50 49 -59 89 -21 89 13 0 30 -6 39 -12z m3493 -25
c4 -12 -2 -25 -20 -40 -46 -40 -63 -19 -24 31 24 30 34 33 44 9z m-3146 -58
c0 -5 -6 1 -14 15 -8 14 -14 30 -14 35 0 6 6 -1 14 -15 8 -14 14 -29 14 -35z
m-4 -156 c4 -6 13 -8 19 -6 7 3 48 -29 92 -71 43 -42 84 -77 89 -77 6 -1 9 -6
7 -13 -1 -7 31 -47 72 -90 70 -73 90 -112 58 -112 -8 0 -12 -6 -8 -15 5 -14 2
-14 -23 0 -139 71 -402 395 -321 395 5 0 12 -5 15 -11z m1195 -22 c0 -4 -6 -2
-14 5 -8 7 -12 17 -9 22 5 8 23 -12 23 -27z m80 13 c0 -5 -5 -10 -11 -10 -5 0
-7 5 -4 10 3 6 8 10 11 10 2 0 4 -4 4 -10z m1720 -4 c0 -2 -9 -6 -20 -9 -11
-3 -18 -1 -14 4 5 9 34 13 34 5z m-2120 -75 c0 -6 -9 -9 -20 -8 -11 1 -20 5
-20 9 0 4 9 8 20 8 11 0 20 -4 20 -9z m1960 -184 c0 -2 -10 -12 -22 -23 l-23
-19 19 23 c18 21 26 27 26 19z m-50 -41 c0 -2 -8 -10 -17 -17 -16 -13 -17 -12
-4 4 13 16 21 21 21 13z m-40 -31 c0 -6 -56 -35 -67 -35 -4 1 8 9 27 20 39 22
40 22 40 15z m-87 -42 c-7 -2 -19 -2 -25 0 -7 3 -2 5 12 5 14 0 19 -2 13 -5z
m-80 -10 c-7 -2 -19 -2 -25 0 -7 3 -2 5 12 5 14 0 19 -2 13 -5z m-2448 -33
c13 -6 15 -9 5 -9 -8 0 -22 4 -30 9 -18 12 -2 12 25 0z m501 -101 c68 -17 52
-29 -18 -13 -34 8 -64 17 -67 19 -8 9 40 5 85 -6z m231 -45 c-3 -3 -12 -4 -19
-1 -8 3 -5 6 6 6 11 1 17 -2 13 -5z m86 -11 c-7 -2 -19 -2 -25 0 -7 3 -2 5 12
5 14 0 19 -2 13 -5z m105 -10 c-15 -2 -42 -2 -60 0 -18 2 -6 4 27 4 33 0 48
-2 33 -4z m215 -10 c-29 -2 -78 -2 -110 0 -32 2 -8 3 52 3 61 0 87 -1 58 -3z"/>
<path d="M1632 9225 c0 -16 2 -22 5 -12 2 9 2 23 0 30 -3 6 -5 -1 -5 -18z"/>
<path d="M7459 9223 c-13 -16 -12 -17 4 -4 9 7 17 15 17 17 0 8 -8 3 -21 -13z"/>
<path d="M1786 9220 c7 -8 15 -44 18 -80 9 -83 16 -134 26 -190 8 -38 8 -33 5
30 -2 41 -9 103 -15 138 -7 35 -10 65 -7 68 2 3 33 -15 68 -39 73 -50 149 -95
134 -80 -5 6 -48 36 -95 66 -47 31 -98 66 -115 79 -16 12 -25 16 -19 8z"/>
<path d="M1642 9130 c0 -19 2 -27 5 -17 2 9 2 25 0 35 -3 9 -5 1 -5 -18z"/>
<path d="M3251 9115 c-67 -19 -110 -45 -150 -91 -58 -65 -30 -72 80 -19 96 45
147 52 239 31 40 -9 75 -14 78 -11 4 3 0 18 -8 32 -33 57 -144 84 -239 58z"/>
<path d="M5824 9102 c-44 -21 -90 -70 -77 -83 5 -5 31 -1 58 7 80 25 167 14
264 -31 62 -29 84 -36 93 -27 19 19 -40 83 -107 116 -77 38 -172 45 -231 18z"/>
<path d="M1653 9050 c0 -25 2 -35 4 -22 2 12 2 32 0 45 -2 12 -4 2 -4 -23z"/>
<path d="M1662 8975 c0 -16 2 -22 5 -12 2 9 2 23 0 30 -3 6 -5 -1 -5 -18z"/>
<path d="M1672 8910 c0 -14 2 -19 5 -12 2 6 2 18 0 25 -3 6 -5 1 -5 -13z"/>
<path d="M1682 8845 c0 -16 2 -22 5 -12 2 9 2 23 0 30 -3 6 -5 -1 -5 -18z"/>
<path d="M1842 8845 c0 -16 2 -22 5 -12 2 9 2 23 0 30 -3 6 -5 -1 -5 -18z"/>
<path d="M1963 8853 c-7 -2 -13 -20 -13 -38 0 -43 27 -55 51 -24 28 37 2 79
-38 62z"/>
<path d="M5792 8760 c-161 -42 -307 -157 -381 -299 -182 -349 -4 -759 352
-812 157 -23 315 33 439 157 78 78 121 153 148 260 45 176 4 348 -114 468 -80
83 -169 119 -316 129 -38 3 -35 4 15 5 195 5 382 -135 465 -348 71 -187 41
-426 -71 -555 l-34 -39 64 44 c125 86 169 179 178 370 9 195 -38 320 -172 456
-123 125 -263 185 -428 183 -40 0 -105 -9 -145 -19z m47 -120 c19 -5 47 -22
63 -37 23 -22 28 -35 28 -75 0 -59 -17 -95 -66 -138 -50 -43 -93 -60 -155 -60
-45 0 -55 4 -85 34 -29 29 -34 41 -34 81 0 54 10 77 54 123 32 34 71 59 116
73 35 10 41 10 79 -1z m221 -119 c62 -29 103 -83 80 -104 -10 -9 -11 -9 -6 0
14 25 -23 71 -78 97 -30 14 -61 26 -68 26 -7 0 -20 5 -28 10 -28 19 42 -1 100
-29z m-136 -193 c23 -37 -35 -76 -70 -48 -19 17 -18 47 4 59 24 15 53 9 66
-11z m-299 -83 c0 -27 -3 -30 -30 -30 -21 0 -31 5 -33 18 -5 25 17 49 42 45
16 -2 21 -10 21 -33z m-71 -131 c25 -9 19 -51 -9 -70 -29 -19 -78 -8 -83 20
-8 38 46 68 92 50z m545 -94 c-18 -22 -34 -38 -37 -35 -6 5 50 73 61 74 4 1
-7 -17 -24 -39z m16 -40 c3 -5 1 -10 -4 -10 -6 0 -11 5 -11 10 0 6 2 10 4 10
3 0 8 -4 11 -10z m-65 -10 c0 -5 -5 -10 -11 -10 -5 0 -7 5 -4 10 3 6 8 10 11
10 2 0 4 -4 4 -10z m-264 -60 c56 -12 131 -3 175 20 10 6 19 8 19 5 0 -3 -19
-15 -42 -25 -75 -34 -183 -22 -235 26 l-28 26 28 -20 c16 -12 53 -26 83 -32z
m288 30 c40 -15 51 -77 19 -112 -27 -30 -70 -23 -93 15 -27 43 -25 62 6 86 30
24 34 24 68 11z m-113 -76 c13 -14 32 -35 42 -45 17 -19 64 -26 83 -11 5 4 -2
-3 -16 -16 -51 -45 -126 -66 -240 -67 -99 0 -109 2 -172 33 -36 19 -77 46 -90
60 l-23 26 30 -21 c50 -33 55 -35 49 -20 -5 15 39 33 56 22 5 -3 36 -7 71 -10
63 -4 105 8 93 27 -4 6 -3 8 3 5 6 -4 17 1 24 10 8 10 9 14 2 10 -6 -4 -14 -3
-18 2 -3 5 12 12 32 14 21 2 41 4 44 5 4 1 17 -10 30 -24z m209 13 c0 -2 -14
-16 -32 -33 -18 -16 -26 -20 -18 -9 19 25 50 52 50 42z"/>
<path d="M5498 8103 c-10 -2 -18 -9 -18 -14 0 -6 8 -5 20 1 11 6 20 13 20 15
0 3 -1 4 -2 4 -2 -1 -11 -3 -20 -6z"/>
<path d="M3141 8754 c-229 -61 -391 -238 -422 -459 -27 -196 38 -394 156 -475
25 -17 45 -29 45 -26 0 3 -13 26 -30 53 -49 78 -74 198 -67 323 7 160 56 271
164 376 61 59 176 114 251 119 l57 4 -55 -10 c-72 -13 -168 -58 -217 -103
-127 -114 -169 -360 -94 -551 112 -288 422 -433 672 -313 165 78 257 221 274
426 21 233 -106 479 -302 585 -114 61 -308 85 -432 51z m318 -137 c34 -16 57
-79 47 -131 -14 -74 -131 -166 -214 -166 -96 0 -149 95 -108 194 16 39 79 95
127 113 38 14 107 10 148 -10z m138 -97 c35 -20 61 -44 78 -73 30 -53 31 -67
4 -67 -20 0 -149 66 -149 77 0 2 29 -11 64 -31 59 -33 96 -45 96 -31 0 14 -30
62 -52 82 -12 12 -43 33 -68 47 -25 14 -40 26 -35 26 6 0 33 -14 62 -30z
m-113 -202 c16 -26 -4 -53 -40 -53 -23 0 -30 5 -32 23 -7 47 47 69 72 30z
m-303 -64 c17 -21 0 -49 -32 -49 -24 0 -36 23 -25 51 7 19 40 18 57 -2z m-53
-177 c20 -15 14 -44 -14 -66 -33 -26 -35 -26 -63 0 -53 50 18 111 77 66z m581
-41 c11 -13 6 -44 -8 -47 -21 -5 -71 -6 -71 -2 0 3 9 18 21 34 22 32 40 36 58
15z m-367 -106 c50 -22 111 -27 166 -15 28 6 32 4 32 -15 0 -25 23 -72 44 -89
9 -7 13 -17 10 -22 -3 -5 3 -6 12 -2 16 6 15 8 -3 23 -38 31 -58 100 -33 115
6 4 8 10 5 15 -3 5 0 12 6 16 7 4 9 3 6 -3 -5 -7 5 -10 26 -9 29 1 34 -4 56
-47 l24 -48 26 23 c14 12 4 0 -23 -29 -112 -118 -296 -155 -442 -89 -70 32
-134 75 -134 89 0 6 8 3 18 -5 26 -22 46 -33 38 -20 -8 13 54 45 81 41 32 -5
65 11 59 28 -6 13 1 15 46 9 l53 -6 -54 19 c-30 11 -67 33 -85 52 -18 19 -20
24 -6 12 14 -12 46 -31 72 -43z"/>
<path d="M3438 7883 c6 -2 18 -2 25 0 6 3 1 5 -13 5 -14 0 -19 -2 -12 -5z"/>
<path d="M1671 8604 c0 -11 3 -14 6 -6 3 7 2 16 -1 19 -3 4 -6 -2 -5 -13z"/>
<path d="M1681 8554 c0 -11 3 -14 6 -6 3 7 2 16 -1 19 -3 4 -6 -2 -5 -13z"/>
<path d="M1712 8390 c0 -14 2 -19 5 -12 2 6 2 18 0 25 -3 6 -5 1 -5 -13z"/>
<path d="M1721 8334 c0 -11 3 -14 6 -6 3 7 2 16 -1 19 -3 4 -6 -2 -5 -13z"/>
<path d="M1731 8274 c0 -11 3 -14 6 -6 3 7 2 16 -1 19 -3 4 -6 -2 -5 -13z"/>
<path d="M1741 8224 c0 -11 3 -14 6 -6 3 7 2 16 -1 19 -3 4 -6 -2 -5 -13z"/>
<path d="M1751 8184 c0 -11 3 -14 6 -6 3 7 2 16 -1 19 -3 4 -6 -2 -5 -13z"/>
<path d="M1762 8145 c0 -11 4 -31 8 -45 6 -20 8 -21 8 -5 0 11 -4 31 -8 45 -6
20 -8 21 -8 5z"/>
<path d="M1781 8054 c0 -11 3 -14 6 -6 3 7 2 16 -1 19 -3 4 -6 -2 -5 -13z"/>
<path d="M2012 8050 c0 -14 2 -19 5 -12 2 6 2 18 0 25 -3 6 -5 1 -5 -13z"/>
<path d="M1795 8000 c7 -50 97 -391 102 -386 4 3 -67 284 -97 386 l-10 35 5
-35z"/>
<path d="M2215 8019 c-4 -6 -5 -12 -2 -15 2 -3 7 2 10 11 7 17 1 20 -8 4z"/>
<path d="M4253 8018 c-38 -47 -25 -107 37 -172 40 -43 48 -59 53 -103 16 -142
158 -276 276 -260 52 7 106 33 143 71 41 41 87 140 95 205 5 42 11 55 39 76
60 46 83 124 48 160 -25 25 -38 13 -51 -46 -15 -70 -47 -99 -107 -99 -55 0
-114 21 -171 60 -48 33 -49 33 -105 -11 -73 -56 -164 -62 -196 -13 -9 13 -19
50 -23 81 -6 57 -19 74 -38 51z m448 -300 c50 -22 84 -67 74 -97 -16 -50 -115
-111 -183 -111 -66 0 -177 92 -166 137 3 12 24 36 47 54 65 52 137 58 228 17z"/>
<path d="M2256 7965 c-11 -8 -15 -15 -9 -15 6 0 16 7 23 15 16 19 11 19 -14 0z"/>
<path d="M6572 7693 c30 -5 78 -48 78 -70 0 -27 -22 -55 -53 -68 -18 -8 -24
-14 -15 -15 30 0 78 49 78 80 0 35 -54 81 -91 79 -22 -2 -22 -2 3 -6z"/>
<path d="M6514 7668 l-19 -23 23 19 c21 18 27 26 19 26 -2 0 -12 -10 -23 -22z"/>
<path d="M6492 7610 c0 -19 2 -27 5 -17 2 9 2 25 0 35 -3 9 -5 1 -5 -18z"/>
<path d="M1900 7594 c0 -15 58 -181 59 -169 1 12 -48 167 -55 174 -2 2 -4 0
-4 -5z"/>
<path d="M1971 7364 c0 -11 3 -14 6 -6 3 7 2 16 -1 19 -3 4 -6 -2 -5 -13z"/>
<path d="M2080 7067 c0 -13 42 -118 46 -115 2 2 -6 29 -17 59 -20 52 -29 70
-29 56z"/>
<path d="M6186 7011 c-11 -4 -15 -10 -10 -14 14 -8 55 3 48 14 -6 10 -12 10
-38 0z"/>
<path d="M5840 6740 c0 -5 5 -10 10 -10 6 0 10 5 10 10 0 6 -4 10 -10 10 -5 0
-10 -4 -10 -10z"/>
<path d="M2762 6670 c0 -14 2 -19 5 -12 2 6 2 18 0 25 -3 6 -5 1 -5 -13z"/>
<path d="M5489 6649 c-26 -26 -24 -61 6 -89 25 -23 27 -23 53 -8 39 24 48 42
37 75 -14 37 -68 50 -96 22z"/>
<path d="M2858 6593 c7 -3 16 -2 19 1 4 3 -2 6 -13 5 -11 0 -14 -3 -6 -6z"/>
<path d="M2956 6475 c-9 -26 -7 -32 5 -12 6 10 9 21 6 23 -2 3 -7 -2 -11 -11z"/>
<path d="M2925 6410 c-3 -4 4 -10 15 -13 11 -3 22 -2 25 3 3 4 -4 10 -15 13
-11 3 -22 2 -25 -3z"/>
<path d="M5264 6405 c3 -9 -4 -20 -21 -28 -16 -9 -22 -17 -14 -21 6 -4 11 -2
11 3 0 6 7 11 15 11 8 0 15 5 15 11 0 5 4 8 8 5 5 -3 9 1 9 9 0 8 -7 17 -15
20 -10 3 -12 0 -8 -10z"/>
<path d="M3678 6241 c-15 -5 -15 -10 -3 -38 8 -18 18 -33 22 -33 4 0 32 -3 61
-6 l54 -6 -24 36 c-20 32 -27 37 -55 34 -19 -2 -34 1 -35 8 -2 6 -11 9 -20 5z"/>
<path d="M4920 6240 c8 -5 20 -10 25 -10 6 0 3 5 -5 10 -8 5 -19 10 -25 10 -5
0 -3 -5 5 -10z"/>
<path d="M4476 6214 c-9 -8 -16 -19 -16 -24 0 -15 31 -40 50 -40 50 0 66 32
32 63 -23 21 -46 22 -66 1z"/>
<path d="M4250 6170 c0 -5 10 -10 23 -10 18 0 19 2 7 10 -19 13 -30 13 -30 0z"/>
<path d="M4565 6130 c-3 -5 1 -10 9 -10 9 0 16 5 16 10 0 6 -4 10 -9 10 -6 0
-13 -4 -16 -10z"/>
<path d="M4127 6084 c-3 -4 1 -13 9 -22 13 -13 17 -13 24 -1 12 18 -17 38 -33
23z"/>
<path d="M8128 10123 c7 -3 16 -2 19 1 4 3 -2 6 -13 5 -11 0 -14 -3 -6 -6z"/>
<path d="M8088 10113 c7 -3 16 -2 19 1 4 3 -2 6 -13 5 -11 0 -14 -3 -6 -6z"/>
<path d="M8048 10103 c7 -3 16 -2 19 1 4 3 -2 6 -13 5 -11 0 -14 -3 -6 -6z"/>
<path d="M8010 10041 c0 -52 14 -61 17 -10 1 21 -2 41 -7 44 -6 4 -10 -10 -10
-34z"/>
<path d="M9245 9830 c10 -11 20 -20 23 -20 3 0 -3 9 -13 20 -10 11 -20 20 -23
20 -3 0 3 -9 13 -20z"/>
<path d="M9320 9761 c0 -6 4 -13 10 -16 6 -3 7 1 4 9 -7 18 -14 21 -14 7z"/>
<path d="M9351 9702 c-1 -7 4 -22 10 -33 5 -11 19 -52 30 -92 13 -49 18 -58
14 -30 -5 44 -53 179 -54 155z"/>
<path d="M9412 9480 c0 -14 2 -19 5 -12 2 6 2 18 0 25 -3 6 -5 1 -5 -13z"/>
<path d="M9204 9090 c0 -63 1 -89 3 -57 2 31 2 83 0 115 -2 31 -3 5 -3 -58z"/>
<path d="M7900 7530 c-9 -6 -10 -10 -3 -10 6 0 15 5 18 10 8 12 4 12 -15 0z"/>
<path d="M6450 5539 c-13 -9 -12 -10 2 -5 14 4 18 -4 21 -52 l3 -57 2 63 c2
63 -2 70 -28 51z"/>
<path d="M6439 5422 c5 -34 6 -35 9 -8 2 16 0 32 -5 37 -5 5 -7 -7 -4 -29z"/>
<path d="M3080 5436 c0 -7 180 -64 220 -70 l35 -6 -30 11 c-62 21 -211 69
-218 69 -4 0 -7 -2 -7 -4z"/>
<path d="M6483 5375 c0 -22 2 -30 4 -17 2 12 2 30 0 40 -3 9 -5 -1 -4 -23z"/>
<path d="M6426 5363 c-6 -14 -5 -15 5 -6 7 7 10 15 7 18 -3 3 -9 -2 -12 -12z"/>
<path d="M5998 5343 c7 -3 16 -2 19 1 4 3 -2 6 -13 5 -11 0 -14 -3 -6 -6z"/>
<path d="M3294 5324 c-18 -14 -18 -14 6 -3 31 14 36 19 24 19 -6 0 -19 -7 -30
-16z"/>
<path d="M5928 5323 c7 -3 16 -2 19 1 4 3 -2 6 -13 5 -11 0 -14 -3 -6 -6z"/>
<path d="M3131 5155 c9 -8 79 -35 79 -30 0 2 -16 12 -36 20 -37 15 -51 19 -43
10z"/>
<path d="M5848 5043 c7 -3 16 -2 19 1 4 3 -2 6 -13 5 -11 0 -14 -3 -6 -6z"/>
<path d="M5698 5013 c7 -3 16 -2 19 1 4 3 -2 6 -13 5 -11 0 -14 -3 -6 -6z"/>
<path d="M3558 4913 c6 -2 18 -2 25 0 6 3 1 5 -13 5 -14 0 -19 -2 -12 -5z"/>
<path d="M3658 4893 c7 -3 16 -2 19 1 4 3 -2 6 -13 5 -11 0 -14 -3 -6 -6z"/>
<path d="M3908 4853 c6 -2 18 -2 25 0 6 3 1 5 -13 5 -14 0 -19 -2 -12 -5z"/>
<path d="M4048 4833 c7 -3 16 -2 19 1 4 3 -2 6 -13 5 -11 0 -14 -3 -6 -6z"/>
<path d="M4143 4823 c9 -2 25 -2 35 0 9 3 1 5 -18 5 -19 0 -27 -2 -17 -5z"/>
<path d="M5108 4823 c12 -2 32 -2 45 0 12 2 2 4 -23 4 -25 0 -35 -2 -22 -4z"/>
<path d="M4963 4813 c20 -2 54 -2 75 0 20 2 3 4 -38 4 -41 0 -58 -2 -37 -4z"/>
<path d="M4457 4803 c18 -2 50 -2 70 0 21 2 7 4 -32 4 -38 0 -55 -2 -38 -4z"/>
<path d="M4658 4803 c39 -2 105 -2 145 0 39 1 7 3 -73 3 -80 0 -112 -2 -72 -3z"/>
<path d="M5223 4803 c9 -2 23 -2 30 0 6 3 -1 5 -18 5 -16 0 -22 -2 -12 -5z"/>
</g>
</svg>
